# xmcd
#
# Track frame offsets: 
#        150
#        12590
#        30845
#        46369
#        68085
#        84371
#        103323
#        120716
#        135992
#        152540
#        168711
#        186840
#        201641
#        218239
#        230352
#        242858
#        262103
#        272898
#        282743
#        298939
#        313673
#        324374
#
# Disc length: 4478 seconds
#
# Revision: 0
# Processed by: cddbd v1.5.2PL0 Copyright (c) Steve Scherf et al.
# Submitted via: ExactAudioCopyFreeDBPlugin 1.0
#
DISCID=53117c16
DTITLE=Various Artist - Music For Cruizin' - CD2 Country Cruizin'
DYEAR=2009
DGENRE=Country
TTITLE0=Cliff Richard and The Shadows - In The Country
TTITLE1=James Blundell and James Reyne - Way Out West
TTITLE2=Billy Ray Cyrus - Achy Breaky Heart
TTITLE3=John Denver - Rocky Mountain High
TTITLE4=Linda Ronstadt Feat. Aaron Neville - Don't Know Much
TTITLE5=Dolly Parton and Kenny Rogers - Island In The Stream
TTITLE6=Ray Price - For The Good Times
TTITLE7=B.J. Thomas - (Hey Won't You Play) Another Somebody Done Someb
TTITLE7=ody Wrong Song
TTITLE8=The Shadows - Riders In The Sky
TTITLE9=Joe South - Games People Play
TTITLE10=Roger Whittaker - The Last Farewell
TTITLE11=Jeannie C. Riley - Harper Valley, Pta
TTITLE12=Elvis Presley - Always On My Mind
TTITLE13=Connie Francis - Everybody's Somebody's Fool
TTITLE14=Charlie Rich - The Most Beautiful Girl
TTITLE15=Bobbie Gentry - Ode To Billie Joe
TTITLE16=Leroy Van Dyke - Walk On By
TTITLE17=Ned Miller - From A Jack To A King
TTITLE18=Willie Nelson - Blue Skies
TTITLE19=Peter And Gordon - Five Hundred Miles
TTITLE20=Jim Reeves - He'll Have To Go
TTITLE21=Don Gibson - Oh Lonesome Me
EXTD=
EXTT0=
EXTT1=
EXTT2=
EXTT3=
EXTT4=
EXTT5=
EXTT6=
EXTT7=
EXTT8=
EXTT9=
EXTT10=
EXTT11=
EXTT12=
EXTT13=
EXTT14=
EXTT15=
EXTT16=
EXTT17=
EXTT18=
EXTT19=
EXTT20=
EXTT21=
PLAYORDER=
